<svg width="95" height="66" viewBox="0 0 95 66" fill="none" xmlns="http://www.w3.org/2000/svg">
<g clip-path="url(#clip0_62:146)">
<path d="M44.3248 -2.07371e-06C44.6926 0.125553 45.0513 0.283657 45.4284 0.37201C49.2819 1.26019 51.2777 3.55273 51.7835 7.51469C51.8471 7.81767 51.9723 8.10395 52.1512 8.35534C52.3301 8.60672 52.5588 8.81769 52.8228 8.97484C60.9483 13.2065 65.3582 19.9539 66.3285 29.0869C67.3769 38.9685 65.4502 48.3665 61.8174 57.453C59.7665 62.6007 55.6324 64.8933 50.4223 65.6373C49.9866 65.7231 49.5565 65.8365 49.1348 65.9768H46.3757C44.6788 65.5536 42.936 65.2606 41.2944 64.6794C37.0776 63.182 35.9601 60.7639 37.3489 56.4578C38.4794 53.0378 40.6007 50.0404 43.4373 47.855C47.4195 44.6789 50.9926 41.2099 53.2688 36.49C59.302 23.9996 53.3792 13.5646 42.6923 9.30036C39.8734 8.17501 36.8338 7.60769 33.7299 6.73811C35.045 3.32953 37.6662 1.15789 41.2346 -0.0232544L44.3248 -2.07371e-06Z" fill="#3A3A3A"/>
<path d="M0 26.3991C0.144838 26.0555 0.27223 25.7048 0.381675 25.3481C0.892757 23.288 2.10451 21.4754 3.80457 20.2281C5.50462 18.9809 7.58454 18.3784 9.6798 18.5263C6.12058 23.6415 5.18709 29.1427 7.11845 35.053C5.6229 35.0428 4.16806 34.5592 2.95817 33.6701C1.74828 32.7811 0.844075 31.5312 0.372476 30.096C0.275908 29.7797 0.124159 29.4821 0 29.1659V26.3991Z" fill="#3A3A3A"/>
<path d="M40.8897 38.8476C40.0022 33.1465 36.6775 31.9142 32.8332 31.4957C30.7501 31.2725 30.1753 30.6772 30.0465 28.5893C29.7476 23.7299 34.622 20.219 39.4964 21.7814C45.3411 23.6415 47.3138 31.1469 43.3085 36.2295C42.6418 37.0759 41.8462 37.8246 40.8897 38.8476Z" fill="#3A3A3A"/>
<path d="M24.3812 48.3061C17.0236 49.6035 13.9748 47.0459 11.7813 43.163C10.4846 40.8658 10.7283 37.6618 12.3194 36.0621C13.9104 34.4625 17.8835 33.9184 19.8977 35.0205C21.1163 35.6855 20.9507 36.7643 20.8633 37.885C20.6747 39.3697 20.6254 40.8691 20.7162 42.3631C21.0243 45.0463 21.8106 46.1577 24.3812 48.3061Z" fill="#3A3A3A"/>
<path d="M30.3315 55.0395C29.9453 57.3646 28.0875 57.6529 26.5056 58.0017C22.7994 58.8291 18.9341 58.5298 15.3957 57.1414C13.5241 56.416 12.4296 53.8584 13.4321 52.1657C13.6344 51.8216 14.8117 51.7844 15.4003 52.0123C17.1891 52.7331 18.8399 53.8258 20.6517 54.449C23.1441 55.3046 24.9789 56.1881 27.6368 55.5371C28.5187 55.2907 29.4205 55.1242 30.3315 55.0395V55.0395Z" fill="#3A3A3A"/>
<path d="M27.6093 43.1537C25.5676 43.0374 24.1007 41.8842 24.2294 40.4984C24.3674 39.0057 26.7586 37.5456 28.8279 37.7083C29.9959 37.806 30.7547 38.2663 30.6075 39.6614C30.4006 41.6052 29.044 43.2374 27.6093 43.1537Z" fill="#3A3A3A"/>
<path d="M94.9862 38.1733C94.6873 43.1258 94.4666 48.0875 92.6318 52.7842C90.5257 58.1598 86.4928 61.1871 81.4345 61.1871C76.4911 61.1871 71.258 57.625 69.3635 52.8819C68.3518 50.3522 68.5265 47.9062 70.3613 45.7624C71.6719 44.2372 73.1572 42.8514 74.3712 41.2518C76.5118 38.5439 78.0475 35.3998 78.8731 32.0351C79.7376 28.194 80.6343 24.5716 83.8395 22.0884C86.41 20.0981 88.254 20.312 90.3693 22.7859C93.7216 26.706 94.6321 31.4771 94.9678 36.4388C95.0184 37.0154 94.9862 37.5967 94.9862 38.1733Z" fill="#3A3A3A"/>
<path d="M83.8165 12.5508C82.2208 9.60723 80.0228 7.6123 77.1119 6.74272C79.4986 4.67804 81.2506 5.1198 83.0026 6.63111C84.7546 8.14242 85.0949 10.2304 83.8165 12.5508Z" fill="#3A3A3A"/>
</g>
<defs>
<clipPath id="clip0_62:146">
<rect width="95" height="66" fill="white"/>
</clipPath>
</defs>
</svg>
